# 3ds Max Wavefront OBJ Exporter v0.97b - (c)2007 guruware
# File Created: 11.03.2021 02:01:48

mtllib GoFaster.mtl

#
# object Box001
#

v  0.037079 -2.128640 3.272839
v  0.037079 -0.007320 5.394161
v  1.037079 -0.007320 5.394161
v  1.037079 -2.128640 3.272839
v  0.037079 -2.411483 3.555682
v  1.037079 -2.411483 3.555682
v  1.037079 -0.290163 5.677003
v  0.037079 -0.290163 5.677003
v  1.037079 0.275522 5.677003
v  0.037079 0.275522 5.677003
v  0.037079 -0.007320 5.959846
v  1.037079 -0.007320 5.959846
v  1.037079 2.114000 3.272840
v  0.037079 2.114000 3.272840
v  0.037079 2.396843 3.555683
v  1.037079 2.396843 3.555683
v  0.037079 -2.128640 1.880033
v  0.037079 -0.007320 4.001354
v  1.037079 -0.007320 4.001354
v  1.037079 -2.128640 1.880033
v  0.037079 -2.411483 2.162876
v  1.037079 -2.411483 2.162876
v  1.037079 -0.290163 4.284196
v  0.037079 -0.290163 4.284196
v  1.037079 0.275522 4.284196
v  0.037079 0.275522 4.284196
v  0.037079 -0.007320 4.567039
v  1.037079 -0.007320 4.567039
v  1.037079 2.114000 1.880033
v  0.037079 2.114000 1.880033
v  0.037079 2.396843 2.162877
v  1.037079 2.396843 2.162877
v  0.037079 -2.128640 0.474443
v  0.037079 -0.007320 2.595765
v  1.037079 -0.007320 2.595765
v  1.037079 -2.128640 0.474443
v  0.037079 -2.411483 0.757286
v  1.037079 -2.411483 0.757286
v  1.037079 -0.290163 2.878607
v  0.037079 -0.290163 2.878607
v  1.037079 0.275522 2.878607
v  0.037079 0.275522 2.878607
v  0.037079 -0.007320 3.161450
v  1.037079 -0.007320 3.161450
v  1.037079 2.114000 0.474444
v  0.037079 2.114000 0.474444
v  0.037079 2.396843 0.757287
v  1.037079 2.396843 0.757287
# 48 vertices

vn -0.577393 0.000090 -0.816467
vn -0.904546 0.000000 -0.426376
vn 0.904546 0.000000 -0.426376
vn 0.577393 0.000090 -0.816467
vn -0.577435 -0.816437 0.000000
vn 0.577435 -0.816437 0.000000
vn 0.707184 -0.499945 0.499945
vn -0.707184 -0.499945 0.499945
vn 0.707107 0.500000 0.500000
vn -0.707107 0.500000 0.500000
vn -0.577266 0.000000 0.816556
vn 0.577266 0.000000 0.816556
vn 0.577393 -0.000090 -0.816467
vn -0.577393 -0.000090 -0.816467
vn -0.577393 0.816467 0.000090
vn 0.577393 0.816467 0.000090
# 16 vertex normals

vt 1.000000 0.000000 0.000000
vt 1.000000 1.000000 0.000000
vt 0.000000 1.000000 0.000000
vt 0.000000 0.000000 0.000000
# 4 texture coords

o Box001
g Box001
usemtl wire_166229229
s 2
f 1/1/1 2/2/2 3/3/3 4/4/4 
s 4
f 5/4/5 6/1/6 7/2/7 8/3/8 
s 8
f 1/4/1 4/1/4 6/2/6 5/3/5 
s 16
f 4/4/4 3/1/3 7/2/7 6/3/6 
s 32
f 9/4/9 10/1/10 11/2/11 12/3/12 
s 64
f 2/4/2 1/1/1 5/2/5 8/3/8 
s off
f 13/4/13 14/1/14 15/1/15 16/4/16 
f 2/1/2 8/2/8 11/2/11 10/1/10 
f 8/2/8 7/3/7 12/3/12 11/2/11 
f 7/3/7 3/4/3 9/4/9 12/3/12 
f 3/4/3 2/1/2 14/1/14 13/4/13 
f 2/1/2 10/1/10 15/1/15 14/1/14 
f 10/1/10 9/4/9 16/4/16 15/1/15 
f 9/4/9 3/4/3 13/4/13 16/4/16 
s 2
f 17/1/1 18/2/2 19/3/3 20/4/4 
s 4
f 21/4/5 22/1/6 23/2/7 24/3/8 
s 8
f 17/4/1 20/1/4 22/2/6 21/3/5 
s 16
f 20/4/4 19/1/3 23/2/7 22/3/6 
s 32
f 25/4/9 26/1/10 27/2/11 28/3/12 
s 64
f 18/4/2 17/1/1 21/2/5 24/3/8 
s off
f 29/4/13 30/1/14 31/1/15 32/4/16 
f 18/1/2 24/2/8 27/2/11 26/1/10 
f 24/2/8 23/3/7 28/3/12 27/2/11 
f 23/3/7 19/4/3 25/4/9 28/3/12 
f 19/4/3 18/1/2 30/1/14 29/4/13 
f 18/1/2 26/1/10 31/1/15 30/1/14 
f 26/1/10 25/4/9 32/4/16 31/1/15 
f 25/4/9 19/4/3 29/4/13 32/4/16 
s 2
f 33/1/1 34/2/2 35/3/3 36/4/4 
s 4
f 37/4/5 38/1/6 39/2/7 40/3/8 
s 8
f 33/4/1 36/1/4 38/2/6 37/3/5 
s 16
f 36/4/4 35/1/3 39/2/7 38/3/6 
s 32
f 41/4/9 42/1/10 43/2/11 44/3/12 
s 64
f 34/4/2 33/1/1 37/2/5 40/3/8 
s off
f 45/4/13 46/1/14 47/1/15 48/4/16 
f 34/1/2 40/2/8 43/2/11 42/1/10 
f 40/2/8 39/3/7 44/3/12 43/2/11 
f 39/3/7 35/4/3 41/4/9 44/3/12 
f 35/4/3 34/1/2 46/1/14 45/4/13 
f 34/1/2 42/1/10 47/1/15 46/1/14 
f 42/1/10 41/4/9 48/4/16 47/1/15 
f 41/4/9 35/4/3 45/4/13 48/4/16 
# 42 polygons

