# 3ds Max Wavefront OBJ Exporter v0.97b - (c)2007 guruware
# File Created: 11.03.2021 01:48:22

mtllib Health3D.mtl

#
# object Box001
#

v  -0.478892 -0.712182 0.301760
v  -0.478892 1.287818 0.301760
v  0.521108 1.287818 0.301760
v  0.521108 -0.712182 0.301760
v  -0.478892 -0.712182 6.369624
v  0.521108 -0.712182 6.369624
v  0.521108 1.287818 6.369624
v  -0.478892 1.287818 6.369624
v  -0.478892 -2.746114 2.335692
v  0.521108 -2.746114 2.335692
v  0.521108 -2.746114 4.335692
v  -0.478892 -2.746114 4.335692
v  0.521108 -0.712182 2.335692
v  0.521108 1.287818 2.335692
v  0.521108 1.287818 4.335692
v  0.521108 -0.712182 4.335692
v  0.521108 3.321749 2.335692
v  -0.478892 3.321749 2.335692
v  -0.478892 3.321749 4.335692
v  0.521108 3.321749 4.335692
v  -0.478892 1.287818 2.335692
v  -0.478892 -0.712182 2.335692
v  -0.478892 -0.712182 4.335692
v  -0.478892 1.287818 4.335692
# 24 vertices

vn -0.577350 -0.577350 -0.577350
vn -0.577350 0.577350 -0.577350
vn 0.577350 0.577350 -0.577350
vn 0.577350 -0.577350 -0.577350
vn -0.577350 -0.577350 0.577350
vn 0.577350 -0.577350 0.577350
vn 0.577350 0.577350 0.577350
vn -0.577350 0.577350 0.577350
vn 0.904534 -0.301511 -0.301511
vn 0.904534 0.301511 -0.301511
vn 0.904534 0.301511 0.301511
vn 0.904534 -0.301511 0.301511
vn -0.904534 0.301511 -0.301511
vn -0.904534 -0.301511 -0.301511
vn -0.904534 -0.301511 0.301511
vn -0.904534 0.301511 0.301511
# 16 vertex normals

vt 1.000000 0.000000 0.000000
vt 1.000000 1.000000 0.000000
vt 0.000000 1.000000 0.000000
vt 0.000000 0.000000 0.000000
# 4 texture coords

o Box001
g Box001
usemtl wire_135006006
s 2
f 1/1/1 2/2/2 3/3/3 4/4/4 
s 4
f 5/4/5 6/1/6 7/2/7 8/3/8 
s 8
f 9/4/1 10/1/4 11/2/6 12/3/5 
s 16
f 13/4/9 14/1/10 15/2/11 16/3/12 
s 32
f 17/4/3 18/1/2 19/2/8 20/3/7 
s 64
f 21/4/13 22/1/14 23/2/15 24/3/16 
s off
f 14/4/10 21/1/13 18/1/2 17/4/3 
f 22/4/14 13/1/9 10/1/4 9/4/1 
f 16/2/12 23/3/15 12/3/5 11/2/6 
f 24/2/16 15/3/11 20/3/7 19/2/8 
f 13/1/9 16/2/12 11/2/6 10/1/4 
f 23/3/15 22/4/14 9/4/1 12/3/5 
f 15/3/11 14/4/10 17/4/3 20/3/7 
f 21/1/13 24/2/16 19/2/8 18/1/2 
f 22/1/14 21/2/13 2/2/2 1/1/1 
f 21/2/13 14/3/10 3/3/3 2/2/2 
f 14/3/10 13/4/9 4/4/4 3/3/3 
f 13/4/9 22/1/14 1/1/1 4/4/4 
f 23/4/15 16/1/12 6/1/6 5/4/5 
f 16/1/12 15/2/11 7/2/7 6/1/6 
f 15/2/11 24/3/16 8/3/8 7/2/7 
f 24/3/16 23/4/15 5/4/5 8/3/8 
# 22 polygons

