# 3ds Max Wavefront OBJ Exporter v0.97b - (c)2007 guruware
# File Created: 27.01.2021 20:33:49

mtllib Tree.mtl

#
# object Line001
#

v  6.568365 -20.542572 232.020798
v  6.038599 -20.729870 232.020798
v  5.943710 -21.256828 232.020798
v  8.379810 -21.679491 232.020798
v  8.438652 -20.938023 232.020798
v  7.434988 -20.202583 232.020798
v  5.908371 -21.801493 232.020798
v  6.137603 -22.829290 232.020798
v  6.923471 -23.247013 232.020798
v  7.740581 -22.868202 232.020798
v  8.434984 -22.092716 232.020798
v  8.183878 -22.379299 232.020798
v  8.002884 -22.584743 232.020798
v  7.880312 -22.722572 232.020798
v  7.804483 -22.806313 232.020798
v  7.763708 -22.849480 232.020798
v  7.746301 -22.865604 232.020798
v  -5.458755 0.873419 9.919380
v  -13.059513 -1.254793 9.919380
v  -8.183537 -6.369164 55.486992
v  -2.505503 -4.779315 55.486992
v  -14.883694 -8.551521 9.919380
v  -9.546265 -11.820076 55.486992
v  18.863668 -16.760340 9.919380
v  20.383823 -6.423309 9.919380
v  16.799814 -10.230228 55.486992
v  15.664204 -17.952353 55.486992
v  7.006486 4.825814 9.919380
v  6.806472 -1.826736 55.486992
v  -15.889858 -16.152279 9.919380
v  -10.297905 -17.498110 55.486992
v  -13.640963 -30.772631 9.919380
v  -8.617899 -28.420029 55.486992
v  -3.018234 -37.364410 9.919380
v  -0.682347 -33.344322 55.486992
v  8.789480 -32.821472 9.919380
v  8.138432 -29.950586 55.486992
v  19.249393 -22.603737 9.919380
v  15.952354 -22.317577 55.486992
v  15.461170 -26.384901 9.919380
v  13.122417 -25.142239 55.486992
v  12.731691 -29.094608 9.919380
v  11.083403 -27.166485 55.486992
v  10.884502 -30.911432 9.919380
v  9.703485 -28.523718 55.486992
v  9.743145 -32.013958 9.919380
v  8.850851 -29.347345 55.486992
v  9.131161 -32.580757 9.919380
v  8.393679 -29.770761 55.486992
v  8.872091 -32.790401 9.919380
v  8.200144 -29.927376 55.486992
v  -7.149094 -7.454183 82.594223
v  -1.878969 -5.978548 82.594223
v  -8.413925 -12.513504 82.594223
v  16.039463 -11.037868 82.594223
v  14.985434 -18.205240 82.594223
v  6.764039 -3.238081 82.594223
v  -9.111568 -17.783630 82.594223
v  -7.552252 -27.920921 82.594223
v  -0.186787 -32.491455 82.594223
v  8.000311 -29.341524 82.594223
v  15.252886 -22.256868 82.594223
v  12.626249 -24.878609 82.594223
v  10.733717 -26.757433 82.594223
v  9.452932 -28.017162 82.594223
v  8.661551 -28.781622 82.594223
v  8.237221 -29.174618 82.594223
v  8.057590 -29.319983 82.594223
v  -5.655928 -9.020353 99.578514
v  -0.974597 -7.709581 99.578514
v  -6.779448 -13.514431 99.578514
v  14.941935 -12.203659 99.578514
v  14.005667 -18.570271 99.578514
v  6.702788 -5.275285 99.578514
v  -7.399149 -18.195763 99.578514
v  -6.014044 -27.200487 99.578514
v  0.528530 -31.260387 99.578514
v  7.800940 -28.462374 99.578514
v  14.243235 -22.169239 99.578514
v  11.910055 -24.498070 99.578514
v  10.228962 -26.166985 99.578514
v  9.091270 -27.285975 99.578514
v  8.388304 -27.965027 99.578514
v  8.011381 -28.314116 99.578514
v  7.851820 -28.443241 99.578514
v  -43.535580 31.460526 93.777237
v  -23.409422 37.095856 93.777237
v  -48.365871 12.139406 93.777237
v  45.019558 17.774736 93.777237
v  40.994312 -9.596855 93.777237
v  9.597492 47.561470 93.777237
v  -51.030109 -7.986759 93.777237
v  -45.075207 -46.700218 93.777237
v  -16.947123 -64.154709 93.777237
v  14.318710 -52.125381 93.777237
v  42.015675 -25.069679 93.777237
v  31.984785 -35.081882 93.777237
v  24.757360 -42.256950 93.777237
v  19.866156 -47.067757 93.777237
v  16.843935 -49.987160 93.777237
v  15.223452 -51.487984 93.777237
v  14.537458 -52.043121 93.777237
v  -31.696692 6.123337 125.535660
v  -19.617552 12.430378 125.535660
v  -32.174206 -6.852623 125.535660
v  26.637339 9.326954 125.535660
v  27.758257 -8.675951 125.535660
v  0.027339 23.554504 125.535660
v  -31.161497 -20.050228 125.535660
v  -22.145754 -43.943222 125.535660
v  -1.850531 -51.286926 125.535660
v  16.472988 -39.399929 125.535660
v  30.494928 -18.408491 125.535660
v  25.445444 -26.147102 125.535660
v  21.801966 -31.698090 125.535660
v  19.330154 -35.426067 125.535660
v  17.795691 -37.695641 125.535660
v  16.964231 -38.871407 125.535660
v  16.601446 -39.317982 125.535660
v  -44.395126 14.830582 119.512741
v  -28.459417 23.151302 119.512741
v  -45.025093 -2.288276 119.512741
v  32.563507 19.057034 119.512741
v  34.042297 -4.693748 119.512741
v  -2.542404 37.827091 119.512741
v  -43.689056 -19.699549 119.512741
v  -31.794809 -51.220978 119.512741
v  -5.019829 -60.909340 119.512741
v  19.153929 -45.227123 119.512741
v  37.652729 -17.533646 119.512741
v  30.991072 -27.743004 119.512741
v  26.184317 -35.066277 119.512741
v  22.923319 -39.984509 119.512741
v  20.898939 -42.978703 119.512741
v  19.802015 -44.529850 119.512741
v  19.323402 -45.119007 119.512741
v  -20.930189 7.749911 142.162140
v  -9.717920 10.889355 142.162140
v  -23.621136 -3.013868 142.162140
v  28.403820 0.125571 142.162140
v  26.161356 -15.123121 142.162140
v  8.670210 16.719738 142.162140
v  -25.105379 -14.226141 142.162140
v  -21.787912 -35.793381 142.162140
v  -6.117777 -45.517258 142.162140
v  11.300396 -38.815731 142.162140
v  26.730356 -23.743023 142.162140
v  21.142155 -29.320816 142.162140
v  17.115763 -33.318039 142.162140
v  14.390875 -35.998131 142.162140
v  12.707197 -37.624527 142.162140
v  11.804428 -38.460636 142.162140
v  11.422262 -38.769905 142.162140
v  -30.020668 17.284830 134.281723
v  -15.223789 21.427965 134.281723
v  -33.571915 3.079829 134.281723
v  35.085644 7.222960 134.281723
v  32.126247 -12.900806 134.281723
v  9.043106 29.122353 134.281723
v  -35.530682 -11.717056 134.281723
v  -31.152611 -40.179436 134.281723
v  -10.472664 -53.012070 134.281723
v  12.514175 -44.168037 134.281723
v  32.877163 -24.276525 134.281723
v  25.502386 -31.637564 134.281723
v  20.188740 -36.912716 134.281723
v  16.592690 -40.449638 134.281723
v  14.370735 -42.596008 134.281723
v  13.179348 -43.699425 134.281723
v  12.675001 -44.107567 134.281723
v  -26.083378 1.276295 157.597885
v  -15.802965 6.560053 157.597885
v  -26.559444 -9.727699 157.597885
v  23.414951 3.674437 157.597885
v  24.267216 -11.602339 157.597885
v  0.921379 15.888336 157.597885
v  -25.772667 -20.927885 157.597885
v  -18.256029 -41.244041 157.597885
v  -1.081152 -47.584297 157.597885
v  14.526510 -37.601635 157.597885
v  26.535278 -19.872786 157.597885
v  22.209789 -26.409307 157.597885
v  19.088888 -31.097874 157.597885
v  16.971806 -34.246525 157.597885
v  15.657804 -36.163273 157.597885
v  14.946102 -37.156044 157.597885
v  14.635920 -37.532845 157.597885
v  -34.532238 7.150141 152.840942
v  -21.665792 13.763025 152.840942
v  -35.128063 -6.621908 152.840942
v  27.417391 10.151537 152.840942
v  28.484041 -8.968113 152.840942
v  -0.734437 25.437838 152.840942
v  -34.143372 -20.639500 152.840942
v  -24.735922 -46.066185 152.840942
v  -3.240706 -54.001331 152.840942
v  16.293062 -41.507530 152.840942
v  31.322638 -19.318991 152.840942
v  25.909071 -27.499773 152.840942
v  22.003107 -33.367748 152.840942
v  19.353472 -37.308441 152.840942
v  17.708937 -39.707348 152.840942
v  16.818205 -40.949852 152.840942
v  16.429995 -41.421436 152.840942
v  -16.064274 -0.448991 177.858704
v  -7.543031 2.563683 177.858704
v  -17.590557 -8.925068 177.858704
v  22.540409 -3.797130 177.858704
v  21.593935 -15.723574 177.858704
v  6.396538 8.032370 177.858704
v  -18.158989 -17.685984 177.858704
v  -14.471794 -34.218014 177.858704
v  -1.831176 -40.937057 177.858704
v  11.311985 -34.843891 177.858704
v  22.481396 -22.370264 177.858704
v  18.442389 -26.979952 177.858704
v  15.531094 -30.284504 177.858704
v  13.559551 -32.501472 177.858704
v  12.339827 -33.848408 177.858704
v  11.683964 -34.542770 177.858704
v  11.403994 -34.802097 177.858704
# 221 vertices

vn -0.183742 0.491482 0.851284
vn -0.469704 0.393181 0.790434
vn -0.550038 0.063931 0.832689
vn 0.588912 0.019648 0.807958
vn 0.630636 0.243449 0.736906
vn 0.098509 0.614811 0.782498
vn -0.578504 -0.050397 0.814121
vn -0.501131 -0.396306 0.769291
vn 0.013355 -0.679945 0.733141
vn 0.259556 -0.565762 0.782652
vn 0.666132 -0.215661 0.713974
vn 0.476960 -0.419099 0.772571
vn 0.475634 -0.420984 0.772363
vn 0.473119 -0.424415 0.772030
vn 0.467601 -0.431943 0.771216
vn 0.451563 -0.454067 0.768059
vn 0.370382 -0.549025 0.749258
vn -0.283045 0.949398 0.136119
vn -0.707296 0.690130 0.153143
vn -0.713405 0.692696 0.105950
vn -0.284836 0.954095 0.092583
vn -0.973983 0.187335 0.127522
vn -0.978724 0.185929 0.086772
vn 0.996744 -0.041894 0.068889
vn 0.924583 0.366692 0.103356
vn 0.934576 0.348790 0.070097
vn 0.998130 -0.039384 0.046758
vn 0.186131 0.972102 0.142737
vn 0.196572 0.975545 0.098346
vn -0.992552 -0.007734 0.121575
vn -0.996495 -0.011384 0.082869
vn -0.830701 -0.543711 0.119642
vn -0.830507 -0.550924 0.082101
vn -0.105007 -0.990138 0.092735
vn -0.089479 -0.993997 0.062956
vn 0.354846 -0.932743 0.063835
vn 0.355218 -0.933779 0.043328
vn 0.935290 -0.346921 0.069851
vn 0.934136 -0.353730 0.047589
vn 0.704415 -0.707619 0.055451
vn 0.704987 -0.708221 0.037633
vn 0.701794 -0.710220 0.055437
vn 0.702383 -0.710804 0.037624
vn 0.696888 -0.715027 0.055529
vn 0.697518 -0.715576 0.037686
vn 0.685972 -0.725478 0.055887
vn 0.686718 -0.725934 0.037929
vn 0.653127 -0.755090 0.057134
vn 0.654299 -0.755241 0.038773
vn 0.494355 -0.867063 0.061768
vn 0.497011 -0.866728 0.041971
vn -0.713812 0.694559 0.089781
vn -0.284984 0.955135 0.080627
vn -0.979458 0.187038 0.075353
vn 0.932088 0.357163 0.060388
vn 0.998352 -0.040464 0.040697
vn 0.192768 0.977671 0.083660
vn -0.997377 -0.009871 0.071703
vn -0.832714 -0.549232 0.070217
vn -0.096260 -0.993875 0.054275
vn 0.355301 -0.933994 0.037649
vn 0.935427 -0.351135 0.040999
vn 0.705115 -0.708339 0.032694
vn 0.702502 -0.710930 0.032685
vn 0.697619 -0.715720 0.032739
vn 0.686768 -0.726129 0.032948
vn 0.654172 -0.755596 0.033674
vn 0.496215 -0.867438 0.036362
vn -0.378515 0.370526 -0.848196
vn -0.202976 0.680061 -0.704498
vn -0.672124 0.128375 -0.729225
vn 0.443550 0.198387 -0.874017
vn 0.678095 -0.029504 -0.734382
vn 0.099799 0.523597 -0.846101
vn -0.654849 -0.005883 -0.755737
vn -0.457034 -0.297588 -0.838189
vn -0.071120 -0.491448 -0.867998
vn 0.228134 -0.599674 -0.767037
vn 0.460095 -0.153471 -0.874505
vn 0.441892 -0.443851 -0.779569
vn 0.439983 -0.445274 -0.779837
vn 0.436467 -0.447969 -0.780269
vn 0.428571 -0.453736 -0.781313
vn 0.404029 -0.468800 -0.785485
vn 0.285619 -0.508235 -0.812477
vn -0.620406 0.687473 -0.377462
vn -0.249613 0.832067 -0.495337
vn -0.833043 0.171038 -0.526104
vn 0.839380 0.313441 -0.444067
vn 0.740129 -0.022614 -0.672084
vn 0.211909 0.895736 -0.390834
vn -0.862917 0.015184 -0.505118
vn -0.778572 -0.445211 -0.442282
vn -0.161719 -0.851034 -0.499588
vn 0.264147 -0.693277 -0.670517
vn 0.775839 -0.319076 -0.544302
vn 0.516243 -0.518766 -0.681450
vn 0.505065 -0.511428 -0.695234
vn 0.495708 -0.509196 -0.703557
vn 0.486027 -0.515450 -0.705754
vn 0.467265 -0.545252 -0.695962
vn 0.365994 -0.676169 -0.639409
vn -0.561765 0.145982 -0.814315
vn -0.370660 0.691892 -0.619593
vn -0.692332 -0.030401 -0.720939
vn 0.205244 0.489931 -0.847256
vn 0.618842 0.065893 -0.782747
vn -0.201798 0.566050 -0.799290
vn -0.636488 -0.181940 -0.749521
vn -0.278512 -0.447507 -0.849805
vn 0.073883 -0.318099 -0.945174
vn 0.283891 -0.442825 -0.850478
vn 0.355848 0.133034 -0.925027
vn 0.421593 -0.275267 -0.863995
vn 0.398168 -0.262035 -0.879091
vn 0.380883 -0.254259 -0.888977
vn 0.367793 -0.253054 -0.894814
vn 0.351702 -0.262853 -0.898451
vn 0.291125 -0.292404 -0.910904
vn -0.809646 0.400923 -0.428642
vn -0.378672 0.705787 -0.598725
vn -0.821070 -0.026723 -0.570202
vn 0.621218 0.553297 -0.554933
vn 0.527126 0.072804 -0.846663
vn -0.124794 0.882080 -0.454270
vn -0.792970 -0.203267 -0.574353
vn -0.540408 -0.657241 -0.525350
vn 0.178179 -0.796295 -0.578071
vn 0.306868 -0.479066 -0.822392
vn 0.727037 -0.021142 -0.686272
vn 0.422309 -0.276107 -0.863377
vn 0.438088 -0.288203 -0.851480
vn 0.448251 -0.298034 -0.842761
vn 0.454877 -0.308951 -0.835246
vn 0.461630 -0.331981 -0.822609
vn 0.457014 -0.436632 -0.774913
vn -0.103510 0.602524 -0.791360
vn -0.218181 0.698092 -0.681956
vn -0.709877 0.185419 -0.679481
vn 0.242595 -0.039928 -0.969306
vn 0.517071 0.024075 -0.855604
vn 0.350080 0.385171 -0.853866
vn -0.667223 0.102053 -0.737834
vn -0.556752 0.003982 -0.830669
vn -0.604206 -0.256228 -0.754508
vn 0.169511 -0.438119 -0.882790
vn 0.117885 -0.211073 -0.970336
vn 0.270985 -0.273025 -0.923052
vn 0.292187 -0.298008 -0.908745
vn 0.302149 -0.316528 -0.899175
vn 0.297962 -0.334392 -0.894092
vn 0.257624 -0.365077 -0.894622
vn 0.055184 -0.404815 -0.912732
vn -0.482638 0.665227 -0.569679
vn -0.201196 0.652942 -0.730196
vn -0.624510 0.133651 -0.769496
vn 0.751891 0.123304 -0.647654
vn 0.409230 0.038001 -0.911639
vn 0.286049 0.761711 -0.581354
vn -0.664490 0.029441 -0.746717
vn -0.673646 -0.316580 -0.667816
vn -0.148792 -0.658642 -0.737598
vn 0.143601 -0.375633 -0.915575
vn 0.533648 -0.340789 -0.774004
vn 0.272395 -0.274450 -0.922214
vn 0.256992 -0.260733 -0.930577
vn 0.246534 -0.253467 -0.935401
vn 0.240836 -0.255122 -0.936435
vn 0.240400 -0.279225 -0.929646
vn 0.213855 -0.413648 -0.884964
vn -0.459272 0.101181 -0.882515
vn -0.334829 0.637680 -0.693725
vn -0.597708 -0.022482 -0.801399
vn 0.123418 0.460377 -0.879102
vn 0.560150 0.048638 -0.826962
vn -0.204417 0.468771 -0.859342
vn -0.541361 -0.152729 -0.826803
vn -0.214937 -0.350331 -0.911631
vn 0.026264 -0.223208 -0.974417
vn 0.237737 -0.376118 -0.895553
vn 0.275703 0.138541 -0.951207
vn 0.360700 -0.238775 -0.901600
vn 0.336250 -0.224436 -0.914639
vn 0.318420 -0.215747 -0.923072
vn 0.304968 -0.213395 -0.928147
vn 0.288223 -0.220584 -0.931810
vn 0.226633 -0.237610 -0.944552
vn -0.756267 0.419669 -0.501934
vn -0.346089 0.651448 -0.675158
vn -0.757578 -0.016687 -0.652532
vn 0.623231 0.468437 -0.626219
vn 0.449442 0.076296 -0.890045
vn -0.071288 0.843938 -0.531683
vn -0.740400 -0.176033 -0.648706
vn -0.540642 -0.599393 -0.590284
vn 0.128547 -0.753432 -0.644838
vn 0.266667 -0.421567 -0.866701
vn 0.663666 -0.081641 -0.743561
vn 0.368089 -0.244323 -0.897116
vn 0.375798 -0.251068 -0.892043
vn 0.381110 -0.257541 -0.887935
vn 0.385457 -0.266720 -0.883337
vn 0.392636 -0.290265 -0.872687
vn 0.392987 -0.403833 -0.826124
vn -0.607990 0.573170 0.549386
vn -0.306710 0.819902 0.483414
vn -0.858715 0.107236 0.501107
vn 0.876011 0.342228 0.339830
vn 0.965926 0.030124 0.257061
vn 0.164395 0.854254 0.493177
vn -0.877041 -0.061700 0.476437
vn -0.717314 -0.517398 0.466647
vn -0.033625 -0.915608 0.400665
vn 0.402142 -0.876024 0.266201
vn 0.916622 -0.301975 0.261945
vn 0.733959 -0.644916 0.213043
vn 0.728654 -0.645045 0.230175
vn 0.722121 -0.648166 0.241706
vn 0.710803 -0.657692 0.249400
vn 0.679717 -0.687337 0.256033
vn 0.530187 -0.804719 0.267075
# 221 vertex normals

o Line001
g Line001
usemtl wire_006135006
s 1
f -221//-221 -220//-220 -219//-219 -218//-218 
f -218//-218 -217//-217 -216//-216 -221//-221 
f -218//-218 -219//-219 -215//-215 -214//-214 
f -218//-218 -214//-214 -213//-213 -212//-212 
f -211//-211 -218//-218 -212//-212 -210//-210 
f -209//-209 -210//-210 -212//-212 -208//-208 
f -207//-207 -208//-208 -212//-212 -206//-206 
f -205//-205 -206//-206 -212//-212 
s off
f -204//-204 -203//-203 -202//-202 -201//-201 
f -203//-203 -200//-200 -199//-199 -202//-202 
f -198//-198 -197//-197 -196//-196 -195//-195 
f -197//-197 -194//-194 -193//-193 -196//-196 
f -194//-194 -204//-204 -201//-201 -193//-193 
f -200//-200 -192//-192 -191//-191 -199//-199 
f -192//-192 -190//-190 -189//-189 -191//-191 
f -190//-190 -188//-188 -187//-187 -189//-189 
f -188//-188 -186//-186 -185//-185 -187//-187 
f -184//-184 -198//-198 -195//-195 -183//-183 
f -182//-182 -184//-184 -183//-183 -181//-181 
f -180//-180 -182//-182 -181//-181 -179//-179 
f -178//-178 -180//-180 -179//-179 -177//-177 
f -176//-176 -178//-178 -177//-177 -175//-175 
f -174//-174 -176//-176 -175//-175 -173//-173 
f -172//-172 -174//-174 -173//-173 -171//-171 
f -186//-186 -172//-172 -171//-171 -185//-185 
f -201//-201 -202//-202 -170//-170 -169//-169 
f -202//-202 -199//-199 -168//-168 -170//-170 
f -195//-195 -196//-196 -167//-167 -166//-166 
f -196//-196 -193//-193 -165//-165 -167//-167 
f -193//-193 -201//-201 -169//-169 -165//-165 
f -199//-199 -191//-191 -164//-164 -168//-168 
f -191//-191 -189//-189 -163//-163 -164//-164 
f -189//-189 -187//-187 -162//-162 -163//-163 
f -187//-187 -185//-185 -161//-161 -162//-162 
f -183//-183 -195//-195 -166//-166 -160//-160 
f -181//-181 -183//-183 -160//-160 -159//-159 
f -179//-179 -181//-181 -159//-159 -158//-158 
f -177//-177 -179//-179 -158//-158 -157//-157 
f -175//-175 -177//-177 -157//-157 -156//-156 
f -173//-173 -175//-175 -156//-156 -155//-155 
f -171//-171 -173//-173 -155//-155 -154//-154 
f -185//-185 -171//-171 -154//-154 -161//-161 
f -169//-169 -170//-170 -153//-153 -152//-152 
f -170//-170 -168//-168 -151//-151 -153//-153 
f -166//-166 -167//-167 -150//-150 -149//-149 
f -167//-167 -165//-165 -148//-148 -150//-150 
f -165//-165 -169//-169 -152//-152 -148//-148 
f -168//-168 -164//-164 -147//-147 -151//-151 
f -164//-164 -163//-163 -146//-146 -147//-147 
f -163//-163 -162//-162 -145//-145 -146//-146 
f -162//-162 -161//-161 -144//-144 -145//-145 
f -160//-160 -166//-166 -149//-149 -143//-143 
f -159//-159 -160//-160 -143//-143 -142//-142 
f -158//-158 -159//-159 -142//-142 -141//-141 
f -157//-157 -158//-158 -141//-141 -140//-140 
f -156//-156 -157//-157 -140//-140 -139//-139 
f -155//-155 -156//-156 -139//-139 -138//-138 
f -154//-154 -155//-155 -138//-138 -137//-137 
f -161//-161 -154//-154 -137//-137 -144//-144 
f -152//-152 -153//-153 -136//-136 -135//-135 
f -153//-153 -151//-151 -134//-134 -136//-136 
f -149//-149 -150//-150 -133//-133 -132//-132 
f -150//-150 -148//-148 -131//-131 -133//-133 
f -148//-148 -152//-152 -135//-135 -131//-131 
f -151//-151 -147//-147 -130//-130 -134//-134 
f -147//-147 -146//-146 -129//-129 -130//-130 
f -146//-146 -145//-145 -128//-128 -129//-129 
f -145//-145 -144//-144 -127//-127 -128//-128 
f -143//-143 -149//-149 -132//-132 -126//-126 
f -142//-142 -143//-143 -126//-126 -125//-125 
f -141//-141 -142//-142 -125//-125 -124//-124 
f -140//-140 -141//-141 -124//-124 -123//-123 
f -139//-139 -140//-140 -123//-123 -122//-122 
f -138//-138 -139//-139 -122//-122 -121//-121 
f -137//-137 -138//-138 -121//-121 -120//-120 
f -144//-144 -137//-137 -120//-120 -127//-127 
f -135//-135 -136//-136 -119//-119 -118//-118 
f -136//-136 -134//-134 -117//-117 -119//-119 
f -132//-132 -133//-133 -116//-116 -115//-115 
f -133//-133 -131//-131 -114//-114 -116//-116 
f -131//-131 -135//-135 -118//-118 -114//-114 
f -134//-134 -130//-130 -113//-113 -117//-117 
f -130//-130 -129//-129 -112//-112 -113//-113 
f -129//-129 -128//-128 -111//-111 -112//-112 
f -128//-128 -127//-127 -110//-110 -111//-111 
f -126//-126 -132//-132 -115//-115 -109//-109 
f -125//-125 -126//-126 -109//-109 -108//-108 
f -124//-124 -125//-125 -108//-108 -107//-107 
f -123//-123 -124//-124 -107//-107 -106//-106 
f -122//-122 -123//-123 -106//-106 -105//-105 
f -121//-121 -122//-122 -105//-105 -104//-104 
f -120//-120 -121//-121 -104//-104 -103//-103 
f -127//-127 -120//-120 -103//-103 -110//-110 
f -118//-118 -119//-119 -102//-102 -101//-101 
f -119//-119 -117//-117 -100//-100 -102//-102 
f -115//-115 -116//-116 -99//-99 -98//-98 
f -116//-116 -114//-114 -97//-97 -99//-99 
f -114//-114 -118//-118 -101//-101 -97//-97 
f -117//-117 -113//-113 -96//-96 -100//-100 
f -113//-113 -112//-112 -95//-95 -96//-96 
f -112//-112 -111//-111 -94//-94 -95//-95 
f -111//-111 -110//-110 -93//-93 -94//-94 
f -109//-109 -115//-115 -98//-98 -92//-92 
f -108//-108 -109//-109 -92//-92 -91//-91 
f -107//-107 -108//-108 -91//-91 -90//-90 
f -106//-106 -107//-107 -90//-90 -89//-89 
f -105//-105 -106//-106 -89//-89 -88//-88 
f -104//-104 -105//-105 -88//-88 -87//-87 
f -103//-103 -104//-104 -87//-87 -86//-86 
f -110//-110 -103//-103 -86//-86 -93//-93 
f -101//-101 -102//-102 -85//-85 -84//-84 
f -102//-102 -100//-100 -83//-83 -85//-85 
f -98//-98 -99//-99 -82//-82 -81//-81 
f -99//-99 -97//-97 -80//-80 -82//-82 
f -97//-97 -101//-101 -84//-84 -80//-80 
f -100//-100 -96//-96 -79//-79 -83//-83 
f -96//-96 -95//-95 -78//-78 -79//-79 
f -95//-95 -94//-94 -77//-77 -78//-78 
f -94//-94 -93//-93 -76//-76 -77//-77 
f -92//-92 -98//-98 -81//-81 -75//-75 
f -91//-91 -92//-92 -75//-75 -74//-74 
f -90//-90 -91//-91 -74//-74 -73//-73 
f -89//-89 -90//-90 -73//-73 -72//-72 
f -88//-88 -89//-89 -72//-72 -71//-71 
f -87//-87 -88//-88 -71//-71 -70//-70 
f -86//-86 -87//-87 -70//-70 -69//-69 
f -93//-93 -86//-86 -69//-69 -76//-76 
f -84//-84 -85//-85 -68//-68 -67//-67 
f -85//-85 -83//-83 -66//-66 -68//-68 
f -81//-81 -82//-82 -65//-65 -64//-64 
f -82//-82 -80//-80 -63//-63 -65//-65 
f -80//-80 -84//-84 -67//-67 -63//-63 
f -83//-83 -79//-79 -62//-62 -66//-66 
f -79//-79 -78//-78 -61//-61 -62//-62 
f -78//-78 -77//-77 -60//-60 -61//-61 
f -77//-77 -76//-76 -59//-59 -60//-60 
f -75//-75 -81//-81 -64//-64 -58//-58 
f -74//-74 -75//-75 -58//-58 -57//-57 
f -73//-73 -74//-74 -57//-57 -56//-56 
f -72//-72 -73//-73 -56//-56 -55//-55 
f -71//-71 -72//-72 -55//-55 -54//-54 
f -70//-70 -71//-71 -54//-54 -53//-53 
f -69//-69 -70//-70 -53//-53 -52//-52 
f -76//-76 -69//-69 -52//-52 -59//-59 
f -67//-67 -68//-68 -51//-51 -50//-50 
f -68//-68 -66//-66 -49//-49 -51//-51 
f -64//-64 -65//-65 -48//-48 -47//-47 
f -65//-65 -63//-63 -46//-46 -48//-48 
f -63//-63 -67//-67 -50//-50 -46//-46 
f -66//-66 -62//-62 -45//-45 -49//-49 
f -62//-62 -61//-61 -44//-44 -45//-45 
f -61//-61 -60//-60 -43//-43 -44//-44 
f -60//-60 -59//-59 -42//-42 -43//-43 
f -58//-58 -64//-64 -47//-47 -41//-41 
f -57//-57 -58//-58 -41//-41 -40//-40 
f -56//-56 -57//-57 -40//-40 -39//-39 
f -55//-55 -56//-56 -39//-39 -38//-38 
f -54//-54 -55//-55 -38//-38 -37//-37 
f -53//-53 -54//-54 -37//-37 -36//-36 
f -52//-52 -53//-53 -36//-36 -35//-35 
f -59//-59 -52//-52 -35//-35 -42//-42 
f -50//-50 -51//-51 -34//-34 -33//-33 
f -51//-51 -49//-49 -32//-32 -34//-34 
f -47//-47 -48//-48 -31//-31 -30//-30 
f -48//-48 -46//-46 -29//-29 -31//-31 
f -46//-46 -50//-50 -33//-33 -29//-29 
f -49//-49 -45//-45 -28//-28 -32//-32 
f -45//-45 -44//-44 -27//-27 -28//-28 
f -44//-44 -43//-43 -26//-26 -27//-27 
f -43//-43 -42//-42 -25//-25 -26//-26 
f -41//-41 -47//-47 -30//-30 -24//-24 
f -40//-40 -41//-41 -24//-24 -23//-23 
f -39//-39 -40//-40 -23//-23 -22//-22 
f -38//-38 -39//-39 -22//-22 -21//-21 
f -37//-37 -38//-38 -21//-21 -20//-20 
f -36//-36 -37//-37 -20//-20 -19//-19 
f -35//-35 -36//-36 -19//-19 -18//-18 
f -42//-42 -35//-35 -18//-18 -25//-25 
f -33//-33 -34//-34 -17//-17 -16//-16 
f -34//-34 -32//-32 -15//-15 -17//-17 
f -30//-30 -31//-31 -14//-14 -13//-13 
f -31//-31 -29//-29 -12//-12 -14//-14 
f -29//-29 -33//-33 -16//-16 -12//-12 
f -32//-32 -28//-28 -11//-11 -15//-15 
f -28//-28 -27//-27 -10//-10 -11//-11 
f -27//-27 -26//-26 -9//-9 -10//-10 
f -26//-26 -25//-25 -8//-8 -9//-9 
f -24//-24 -30//-30 -13//-13 -7//-7 
f -23//-23 -24//-24 -7//-7 -6//-6 
f -22//-22 -23//-23 -6//-6 -5//-5 
f -21//-21 -22//-22 -5//-5 -4//-4 
f -20//-20 -21//-21 -4//-4 -3//-3 
f -19//-19 -20//-20 -3//-3 -2//-2 
f -18//-18 -19//-19 -2//-2 -1//-1 
f -25//-25 -18//-18 -1//-1 -8//-8 
f -16//-16 -17//-17 -220//-220 -221//-221 
f -17//-17 -15//-15 -219//-219 -220//-220 
f -13//-13 -14//-14 -217//-217 -218//-218 
f -14//-14 -12//-12 -216//-216 -217//-217 
f -12//-12 -16//-16 -221//-221 -216//-216 
f -15//-15 -11//-11 -215//-215 -219//-219 
f -11//-11 -10//-10 -214//-214 -215//-215 
f -10//-10 -9//-9 -213//-213 -214//-214 
f -9//-9 -8//-8 -212//-212 -213//-213 
f -7//-7 -13//-13 -218//-218 -211//-211 
f -6//-6 -7//-7 -211//-211 -210//-210 
f -5//-5 -6//-6 -210//-210 -209//-209 
f -4//-4 -5//-5 -209//-209 -208//-208 
f -3//-3 -4//-4 -208//-208 -207//-207 
f -2//-2 -3//-3 -207//-207 -206//-206 
f -1//-1 -2//-2 -206//-206 -205//-205 
f -8//-8 -1//-1 -205//-205 -212//-212 
# 211 polygons - 1 triangles

